# 3ds Max Wavefront OBJ Exporter v0.99 - (c)2007 guruware
# File Created: 07.06.2023 11:51:39

mtllib mesa_tele.mtl

#
# object Cube_002
#

v  -13.1456 15.6947 -10.7988
v  17.6160 15.6947 -10.7988
v  17.6160 15.6947 8.5825
v  -13.1456 15.6947 8.5825
v  17.6160 17.3137 -10.7988
v  -13.1456 17.3137 -10.7988
v  -13.1456 17.3137 8.5825
v  17.6160 17.3137 8.5825
v  18.2811 0.8912 8.5329
v  18.2811 39.6148 8.5329
v  18.2811 39.6148 8.7978
v  18.2811 0.8912 8.7978
v  12.6256 39.6148 8.5329
v  12.6256 0.8912 8.5329
v  12.6256 0.8912 8.7978
v  12.6256 39.6148 8.7978
v  17.6554 0.8912 8.7978
v  17.6554 0.8912 8.5329
v  17.6554 39.6148 8.5329
v  17.6554 39.6148 8.7978
v  17.6554 39.6148 6.1763
v  17.6554 0.8912 6.1763
v  18.2811 39.6148 6.1763
v  18.2811 0.8912 6.1763
v  -13.3197 39.6148 8.7811
v  -13.9192 39.6148 8.7811
v  -13.9192 0.8912 8.7811
v  -13.3197 0.8912 8.7811
v  -13.9192 0.8912 6.2820
v  -13.9192 39.6148 6.2820
v  -13.3197 39.6148 6.2820
v  -13.3197 0.8912 6.2820
v  -13.9192 0.8912 8.5047
v  -13.3197 0.8912 8.5047
v  -13.3197 39.6148 8.5047
v  -13.9192 39.6148 8.5047
v  -7.9867 39.6148 8.5047
v  -7.9867 0.8912 8.5047
v  -7.9867 39.6148 8.7811
v  -7.9867 0.8912 8.7811
v  -13.8306 39.6148 -10.8149
v  -13.8306 39.6148 -11.0798
v  -13.8306 0.8912 -11.0798
v  -13.8306 0.8912 -10.8149
v  -8.1751 0.8912 -11.0798
v  -8.1751 39.6148 -11.0798
v  -8.1751 39.6148 -10.8149
v  -8.1751 0.8912 -10.8149
v  -13.2050 0.8912 -11.0798
v  -13.2050 0.8912 -10.8149
v  -13.2050 39.6148 -10.8149
v  -13.2050 39.6148 -11.0798
v  -13.2050 39.6148 -8.4583
v  -13.2050 0.8912 -8.4583
v  -13.8306 39.6148 -8.4583
v  -13.8306 0.8912 -8.4583
v  17.6324 39.6148 -11.0808
v  18.2320 39.6148 -11.0808
v  18.2320 0.8912 -11.0808
v  17.6324 0.8912 -11.0808
v  18.2320 0.8912 -8.5817
v  18.2320 39.6148 -8.5817
v  17.6324 39.6148 -8.5817
v  17.6324 0.8912 -8.5817
v  18.2320 0.8912 -10.8043
v  17.6324 0.8912 -10.8043
v  17.6324 39.6148 -10.8043
v  18.2320 39.6148 -10.8043
v  12.2994 39.6148 -10.8043
v  12.2994 0.8912 -10.8043
v  12.2994 39.6148 -11.0808
v  12.2994 0.8912 -11.0808
v  10.5418 39.6475 8.7950
v  10.5418 41.4114 8.7950
v  -6.1996 41.4114 8.7950
v  -6.1996 39.6475 8.7950
v  10.5418 39.6475 -11.1459
v  -6.1995 39.6475 -11.1459
v  -6.1995 41.4114 -11.1459
v  10.5418 41.4114 -11.1459
v  23.4934 41.4135 8.8270
v  23.4934 39.5261 8.8270
v  23.4934 39.5261 -11.1779
v  23.4934 41.4135 -11.1778
v  -19.1824 41.4135 -11.1779
v  -19.1824 39.5261 -11.1779
v  -19.1824 39.5261 8.8269
v  -19.1824 41.4135 8.8270
v  -6.1487 39.5261 8.8270
v  -6.1487 39.5261 -11.1779
v  10.4910 39.5261 -11.1779
v  10.4910 39.5261 8.8270
v  -6.1487 41.4135 8.8270
v  -6.1487 41.4135 -11.1779
v  10.4910 41.4135 -11.1779
v  10.4910 41.4135 8.8270
# 96 vertices

vn 0.0000 -1.0000 -0.0000
vn 0.0000 1.0000 -0.0000
vn 0.0000 0.0000 -1.0000
vn 1.0000 0.0000 -0.0000
vn 0.0000 0.0000 1.0000
vn -1.0000 0.0000 -0.0000
# 6 vertex normals

vt 0.6569 0.9904 0.0000
vt 0.6569 0.5393 0.0000
vt 0.0137 0.5393 0.0000
vt 0.0137 0.9904 0.0000
vt 0.6582 0.5378 0.0000
vt 0.6582 0.9921 0.0000
vt 0.0106 0.9921 0.0000
vt 0.0106 0.5378 0.0000
vt 0.1043 0.6166 0.0000
vt 0.5280 0.6166 0.0000
vt 0.5280 0.6342 0.0000
vt 0.1043 0.6342 0.0000
vt 0.6564 0.6910 0.0000
vt 0.6564 0.7100 0.0000
vt 0.0044 0.7100 0.0000
vt 0.0044 0.6910 0.0000
vt 0.1161 0.6244 0.0000
vt 0.1161 0.6410 0.0000
vt 0.5143 0.6410 0.0000
vt 0.5143 0.6244 0.0000
vt 0.6565 0.6926 0.0000
vt 0.0034 0.6926 0.0000
vt 0.0034 0.7116 0.0000
vt 0.6565 0.7116 0.0000
vt 0.1072 0.8251 0.0000
vt 0.5322 0.8251 0.0000
vt 0.5322 0.8515 0.0000
vt 0.1072 0.8515 0.0000
vt 0.5144 0.7943 0.0000
vt 0.1182 0.7943 0.0000
vt 0.1182 0.8189 0.0000
vt 0.5144 0.8189 0.0000
vt 0.0216 0.5687 0.0000
vt 0.0216 0.5988 0.0000
vt 0.0236 0.6026 0.0000
vt 0.0236 0.5728 0.0000
vt 0.0216 0.8405 0.0000
vt 0.0236 0.8429 0.0000
vt 0.4847 0.5687 0.0000
vt 0.4839 0.5728 0.0000
vt 0.4839 0.6026 0.0000
vt 0.4847 0.5988 0.0000
vt 0.4839 0.8429 0.0000
vt 0.4847 0.8405 0.0000
vt 0.1085 0.8215 0.0000
vt 0.5301 0.8215 0.0000
vt 0.5301 0.5881 0.0000
vt 0.1085 0.5881 0.0000
vt 0.4765 0.6065 0.0000
vt 0.4765 0.6349 0.0000
vt 0.0398 0.6349 0.0000
vt 0.0398 0.6065 0.0000
vt 0.1072 0.5899 0.0000
vt 0.5322 0.5899 0.0000
vt 0.5512 0.2982 0.0000
vt 0.5512 0.3256 0.0000
vt 0.9266 0.3256 0.0000
vt 0.9266 0.2982 0.0000
vt 0.5349 0.3199 0.0000
vt 0.9485 0.3199 0.0000
vt 0.9485 0.3500 0.0000
vt 0.5349 0.3500 0.0000
vt 0.5283 0.1030 0.0000
vt 0.9869 0.1030 0.0000
vt 0.9869 0.4059 0.0000
vt 0.5283 0.4059 0.0000
vt 0.5326 0.4036 0.0000
vt 0.9850 0.4036 0.0000
vt 0.9850 0.1047 0.0000
vt 0.5326 0.1047 0.0000
vt 0.0272 0.7893 0.0000
vt 0.0272 0.7404 0.0000
vt 0.6371 0.7404 0.0000
vt 0.6371 0.7893 0.0000
vt 0.6270 0.7800 0.0000
vt 0.6270 0.7337 0.0000
vt 0.0502 0.7337 0.0000
vt 0.0502 0.7800 0.0000
vt 0.0198 0.7473 0.0000
vt 0.0198 0.9407 0.0000
vt 0.6452 0.9407 0.0000
vt 0.6452 0.7473 0.0000
vt 0.6414 0.9418 0.0000
vt 0.6414 0.7484 0.0000
vt 0.0160 0.7484 0.0000
vt 0.0160 0.9418 0.0000
vt 0.6475 0.9460 0.0000
vt 0.0145 0.9460 0.0000
vt 0.0145 0.7502 0.0000
vt 0.6475 0.7502 0.0000
vt 0.6438 0.9396 0.0000
vt 0.0108 0.9396 0.0000
vt 0.0108 0.7439 0.0000
vt 0.6438 0.7439 0.0000
vt 0.6089 0.7340 0.0000
vt 0.4004 0.7340 0.0000
vt 0.4004 0.6945 0.0000
vt 0.6089 0.6945 0.0000
vt 0.2683 0.6877 0.0000
vt 0.2683 0.7272 0.0000
vt 0.0598 0.7272 0.0000
vt 0.0598 0.6877 0.0000
vt 0.0741 0.7167 0.0000
vt 0.2751 0.7167 0.0000
vt 0.2751 0.6787 0.0000
vt 0.0741 0.6787 0.0000
vt 0.3912 0.6855 0.0000
vt 0.3912 0.7235 0.0000
vt 0.5922 0.7235 0.0000
vt 0.5922 0.6855 0.0000
# 110 texture coords

o Cube_002
g Cube_002
usemtl Material__25
s off
f 1/1/1 2/2/1 3/3/1 
f 3/3/1 4/4/1 1/1/1 
f 5/5/2 6/6/2 7/7/2 
f 7/7/2 8/8/2 5/5/2 
f 2/9/3 1/10/3 6/11/3 
f 6/11/3 5/12/3 2/9/3 
f 2/13/4 5/14/4 8/15/4 
f 8/15/4 3/16/4 2/13/4 
f 3/17/5 8/18/5 7/19/5 
f 7/19/5 4/20/5 3/17/5 
f 1/21/6 4/22/6 7/23/6 
f 7/23/6 6/24/6 1/21/6 
f 9/25/4 10/26/4 11/27/4 
f 11/27/4 12/28/4 9/25/4 
f 13/29/6 14/30/6 15/31/6 
f 15/31/6 16/32/6 13/29/6 
f 12/33/1 17/34/1 18/35/1 
f 18/35/1 9/36/1 12/33/1 
f 18/35/1 17/34/1 15/37/1 
f 15/37/1 14/38/1 18/35/1 
f 11/39/2 10/40/2 19/41/2 
f 19/41/2 20/42/2 11/39/2 
f 20/42/2 19/41/2 13/43/2 
f 13/43/2 16/44/2 20/42/2 
f 17/34/5 12/33/5 11/39/5 
f 11/39/5 20/42/5 17/34/5 
f 15/37/5 17/34/5 20/42/5 
f 20/42/5 16/44/5 15/37/5 
f 13/43/3 19/41/3 18/35/3 
f 18/35/3 14/38/3 13/43/3 
f 18/45/6 19/46/6 21/47/6 
f 21/47/6 22/48/6 18/45/6 
f 19/41/2 10/40/2 23/49/2 
f 23/49/2 21/50/2 19/41/2 
f 18/35/1 22/51/1 24/52/1 
f 24/52/1 9/36/1 18/35/1 
f 24/53/4 23/54/4 10/26/4 
f 10/26/4 9/25/4 24/53/4 
f 23/49/3 24/52/3 22/51/3 
f 22/51/3 21/50/3 23/49/3 
f 25/26/5 26/27/5 27/28/5 
f 27/28/5 28/25/5 25/26/5 
f 29/31/3 30/32/3 31/29/3 
f 31/29/3 32/30/3 29/31/3 
f 28/36/1 27/33/1 33/34/1 
f 33/34/1 34/35/1 28/36/1 
f 34/35/1 33/34/1 29/37/1 
f 29/37/1 32/38/1 34/35/1 
f 26/39/2 25/40/2 35/41/2 
f 35/41/2 36/42/2 26/39/2 
f 36/42/2 35/41/2 31/43/2 
f 31/43/2 30/44/2 36/42/2 
f 33/34/6 27/33/6 26/39/6 
f 26/39/6 36/42/6 33/34/6 
f 33/34/6 36/42/6 30/44/6 
f 30/44/6 29/37/6 33/34/6 
f 31/43/4 35/41/4 34/35/4 
f 34/35/4 32/38/4 31/43/4 
f 34/45/3 35/46/3 37/47/3 
f 37/47/3 38/48/3 34/45/3 
f 35/41/2 25/40/2 39/49/2 
f 39/49/2 37/50/2 35/41/2 
f 34/35/1 38/51/1 40/52/1 
f 40/52/1 28/36/1 34/35/1 
f 25/26/5 28/25/5 40/53/5 
f 40/53/5 39/54/5 25/26/5 
f 39/49/4 40/52/4 38/51/4 
f 38/51/4 37/50/4 39/49/4 
f 41/26/6 42/27/6 43/28/6 
f 43/28/6 44/25/6 41/26/6 
f 45/31/4 46/32/4 47/29/4 
f 47/29/4 48/30/4 45/31/4 
f 44/36/1 43/33/1 49/34/1 
f 49/34/1 50/35/1 44/36/1 
f 50/35/1 49/34/1 45/37/1 
f 45/37/1 48/38/1 50/35/1 
f 42/39/2 41/40/2 51/41/2 
f 51/41/2 52/42/2 42/39/2 
f 52/42/2 51/41/2 47/43/2 
f 47/43/2 46/44/2 52/42/2 
f 49/34/3 43/33/3 42/39/3 
f 42/39/3 52/42/3 49/34/3 
f 49/34/3 52/42/3 46/44/3 
f 46/44/3 45/37/3 49/34/3 
f 47/43/5 51/41/5 50/35/5 
f 50/35/5 48/38/5 47/43/5 
f 50/45/4 51/46/4 53/47/4 
f 53/47/4 54/48/4 50/45/4 
f 51/41/2 41/40/2 55/49/2 
f 55/49/2 53/50/2 51/41/2 
f 50/35/1 54/51/1 56/52/1 
f 56/52/1 44/36/1 50/35/1 
f 41/26/6 44/25/6 56/53/6 
f 56/53/6 55/54/6 41/26/6 
f 55/49/5 56/52/5 54/51/5 
f 54/51/5 53/50/5 55/49/5 
f 57/26/3 58/27/3 59/28/3 
f 59/28/3 60/25/3 57/26/3 
f 61/31/5 62/32/5 63/29/5 
f 63/29/5 64/30/5 61/31/5 
f 60/36/1 59/33/1 65/34/1 
f 65/34/1 66/35/1 60/36/1 
f 66/35/1 65/34/1 61/37/1 
f 61/37/1 64/38/1 66/35/1 
f 58/39/2 57/40/2 67/41/2 
f 67/41/2 68/42/2 58/39/2 
f 68/42/2 67/41/2 63/43/2 
f 63/43/2 62/44/2 68/42/2 
f 65/34/4 59/33/4 58/39/4 
f 58/39/4 68/42/4 65/34/4 
f 65/34/4 68/42/4 62/44/4 
f 62/44/4 61/37/4 65/34/4 
f 63/43/6 67/41/6 66/35/6 
f 66/35/6 64/38/6 63/43/6 
f 66/45/5 67/46/5 69/47/5 
f 69/47/5 70/48/5 66/45/5 
f 67/41/2 57/40/2 71/49/2 
f 71/49/2 69/50/2 67/41/2 
f 66/35/1 70/51/1 72/52/1 
f 72/52/1 60/36/1 66/35/1 
f 57/26/3 60/25/3 72/53/3 
f 72/53/3 71/54/3 57/26/3 
f 71/49/6 72/52/6 70/51/6 
f 70/51/6 69/50/6 71/49/6 
f 73/55/5 74/56/5 75/57/5 
f 75/57/5 76/58/5 73/55/5 
f 77/59/3 78/60/3 79/61/3 
f 79/61/3 80/62/3 77/59/3 
f 74/63/2 80/64/2 79/65/2 
f 79/65/2 75/66/2 74/63/2 
f 76/67/1 78/68/1 77/69/1 
f 77/69/1 73/70/1 76/67/1 
f 73/70/4 77/69/4 80/64/4 
f 80/64/4 74/63/4 73/70/4 
f 78/68/6 76/67/6 75/66/6 
f 75/66/6 79/65/6 78/68/6 
f 81/71/4 82/72/4 83/73/4 
f 83/73/4 84/74/4 81/71/4 
f 85/75/6 86/76/6 87/77/6 
f 87/77/6 88/78/6 85/75/6 
f 89/79/1 87/80/1 86/81/1 
f 86/81/1 90/82/1 89/79/1 
f 91/83/1 83/84/1 82/85/1 
f 82/85/1 92/86/1 91/83/1 
f 85/87/2 88/88/2 93/89/2 
f 93/89/2 94/90/2 85/87/2 
f 95/91/2 96/92/2 81/93/2 
f 81/93/2 84/94/2 95/91/2 
f 85/95/3 94/96/3 90/97/3 
f 90/97/3 86/98/3 85/95/3 
f 91/99/3 95/100/3 84/101/3 
f 84/101/3 83/102/3 91/99/3 
f 81/103/5 96/104/5 92/105/5 
f 92/105/5 82/106/5 81/103/5 
f 89/107/5 93/108/5 88/109/5 
f 88/109/5 87/110/5 89/107/5 
# 156 faces

